<?xml version="1.0" encoding="UTF-8" standalone="no"?>
<!-- Created with Inkscape (http://www.inkscape.org/) -->

<svg
   width="64"
   height="64"
   viewBox="0 0 16.933333 16.933334"
   version="1.1"
   id="svg5"
   inkscape:version="1.1 (c4e8f9ed74, 2021-05-24)"
   sodipodi:docname="GraphBase.svg"
   xmlns:inkscape="http://www.inkscape.org/namespaces/inkscape"
   xmlns:sodipodi="http://sodipodi.sourceforge.net/DTD/sodipodi-0.dtd"
   xmlns:xlink="http://www.w3.org/1999/xlink"
   xmlns="http://www.w3.org/2000/svg"
   xmlns:svg="http://www.w3.org/2000/svg">
  <sodipodi:namedview
     id="namedview7"
     pagecolor="#131010"
     bordercolor="#666666"
     borderopacity="1.0"
     inkscape:pageshadow="2"
     inkscape:pageopacity="0"
     inkscape:pagecheckerboard="0"
     inkscape:document-units="mm"
     showgrid="true"
     units="px"
     width="64px"
     inkscape:snap-global="false"
     inkscape:zoom="6.4245337"
     inkscape:cx="11.368215"
     inkscape:cy="16.781939"
     inkscape:window-width="1638"
     inkscape:window-height="983"
     inkscape:window-x="1941"
     inkscape:window-y="46"
     inkscape:window-maximized="1"
     inkscape:current-layer="layer1">
    <inkscape:grid
       type="xygrid"
       id="grid826"
       originx="0"
       spacingx="0.26458334"
       spacingy="0.26458334"
       empspacing="4"
       originy="8.466667"
       dotted="false"
       visible="true" />
  </sodipodi:namedview>
  <defs
     id="defs2">
    <linearGradient
       inkscape:collect="always"
       id="linearGradient11416">
      <stop
         style="stop-color:#000000;stop-opacity:1;"
         offset="0"
         id="stop11412" />
      <stop
         style="stop-color:#000000;stop-opacity:0;"
         offset="1"
         id="stop11414" />
    </linearGradient>
    <linearGradient
       inkscape:collect="always"
       xlink:href="#linearGradient11416"
       id="linearGradient11418"
       x1="1.4884811"
       y1="1.010184"
       x2="8.0621378"
       y2="1.010184"
       gradientUnits="userSpaceOnUse"
       gradientTransform="translate(1.5854664,-0.74052233)" />
  </defs>
  <g
     inkscape:label="Layer 1"
     inkscape:groupmode="layer"
     id="layer1"
     style="display:inline">
    <path
       sodipodi:type="star"
       style="fill:#f2f2f2;fill-opacity:1;stroke:none"
       id="path968"
       inkscape:flatsided="true"
       sodipodi:sides="6"
       sodipodi:cx="32"
       sodipodi:cy="32.000004"
       sodipodi:r1="32"
       sodipodi:r2="27.712814"
       sodipodi:arg1="1.5707963"
       sodipodi:arg2="2.0943951"
       inkscape:rounded="0"
       inkscape:randomized="0"
       d="M 32.000001,64.000004 4.2871875,48.000005 l -8e-7,-32 L 31.999999,3.8146973e-6 59.712812,16.000003 l 10e-7,32 z"
       transform="matrix(0.18933211,-0.10931095,0.10931095,0.18933211,-1.0783368,5.5898187)" />
  </g>
  <g
     inkscape:groupmode="layer"
     id="layer2"
     inkscape:label="Layer 2"
     style="display:none">
    <path
       id="path3894"
       style="fill:none;stroke:#f2f2f2;stroke-width:0.153036;stroke-miterlimit:4;stroke-dasharray:none;stroke-opacity:1"
       d="M 8.9154848,8.907824 8.040997,8.9078241 7.6037533,8.1504956 8.0409971,7.3931671 H 8.9154848 L 9.3527286,8.1504954 Z M 9.3527286,9.6651526 H 7.6037535 l -0.8744876,-1.514657 0.8744875,-1.5146568 1.748975,-1e-7 0.8744876,1.5146567 z M 9.7899722,10.422481 H 7.1665098 L 5.8547783,8.1504956 7.1665097,5.8785103 l 2.6234625,-1e-7 1.3117298,2.2719852 z m 0.4372438,0.757328 H 6.7292662 L 4.9802908,8.1504957 6.7292658,5.1211818 h 3.4979492 l 1.748976,3.0293136 z m 0.437244,0.757329 H 6.2920222 L 4.1058029,8.1504959 6.2920216,4.3638532 l 4.3724374,-2e-7 2.18622,3.786642 z m 0.437244,0.757328 -5.2469255,10e-7 -2.6234632,-4.543971 2.6234625,-4.5439711 5.2469242,-5e-7 2.623465,4.5439705 z m 0.437244,0.757329 H 5.4175348 L 2.3568278,8.150496 5.417534,2.8491965 l 6.121414,-5e-7 3.060706,5.301299 z" />
    <g
       aria-label="F"
       id="text2456"
       style="font-weight:bold;font-size:0.705556px;line-height:1.25;font-family:monospace;-inkscape-font-specification:'monospace, Bold';fill:#f2f2f2;stroke-width:0.264583"
       transform="matrix(0.82628745,0,0,0.82628745,1.482341,0.39531523)">
      <path
         d="M 8.8040639,7.8622287 H 8.5853002 v 0.1109322 h 0.1991266 v 0.089573 H 8.5853002 V 8.2870092 H 8.4836698 v -0.514353 h 0.3203941 z"
         id="path5240" />
    </g>
    <g
       aria-label="E"
       id="text4778"
       style="font-weight:bold;font-size:0.705556px;line-height:1.25;font-family:monospace;-inkscape-font-specification:'monospace, Bold';fill:#f2f2f2;stroke-width:0.264583"
       transform="matrix(0.82628745,0,0,0.82628745,1.482341,0.39531523)">
      <path
         d="M 8.7992407,7.3584771 H 8.4788466 v -0.514353 h 0.3203941 v 0.089573 H 8.580477 v 0.1109321 h 0.1980931 v 0.089573 H 8.580477 v 0.1347033 h 0.2187637 z"
         id="path5243" />
    </g>
    <g
       aria-label="D"
       id="text4786"
       style="font-weight:bold;font-size:0.705556px;line-height:1.25;font-family:monospace;-inkscape-font-specification:'monospace, Bold';fill:#f2f2f2;stroke-width:0.264583"
       transform="matrix(0.82628745,0,0,0.82628745,1.482341,0.39531523)">
      <path
         d="m 8.5697972,6.0221894 v 0.3310739 h 0.027561 q 0.059945,0 0.085438,-0.037552 0.025494,-0.037896 0.025494,-0.1285021 0,-0.089917 -0.025494,-0.1274686 -0.025494,-0.037552 -0.085438,-0.037552 z m -0.1016304,-0.09164 h 0.1088651 q 0.1260906,0 0.1815567,0.060289 0.055466,0.059945 0.055466,0.1963706 0,0.1367704 -0.055466,0.1974041 -0.055466,0.060289 -0.1815567,0.060289 H 8.4681668 Z"
         id="path5246" />
    </g>
    <g
       aria-label="C"
       id="text4790"
       style="font-weight:bold;font-size:0.705556px;line-height:1.25;font-family:monospace;-inkscape-font-specification:'monospace, Bold';fill:#f2f2f2;stroke-width:0.264583"
       transform="matrix(0.82628745,0,0,0.82628745,1.482341,0.39531523)">
      <path
         d="m 8.7933841,5.5073094 q -0.024116,0.012402 -0.050643,0.018604 -0.026527,0.0062 -0.055811,0.0062 -0.1040419,0 -0.158819,-0.068557 -0.054777,-0.068557 -0.054777,-0.1980931 0,-0.1298802 0.054777,-0.1984376 0.054777,-0.068557 0.158819,-0.068557 0.029283,0 0.056155,0.0062 0.026872,0.0062 0.050299,0.018604 v 0.1129992 q -0.026183,-0.024116 -0.050988,-0.03514 -0.02446,-0.011369 -0.050643,-0.011369 -0.055811,0 -0.084405,0.044442 -0.02825,0.044097 -0.02825,0.1312582 0,0.086816 0.02825,0.1312582 0.028594,0.044097 0.084405,0.044097 0.026183,0 0.050643,-0.011024 0.024805,-0.011369 0.050988,-0.035485 z"
         id="path5249" />
    </g>
    <g
       aria-label="B"
       id="text4794"
       style="font-weight:bold;font-size:0.705556px;line-height:1.25;font-family:monospace;-inkscape-font-specification:'monospace, Bold';fill:#f2f2f2;stroke-width:0.264583"
       transform="matrix(0.82628745,0,0,0.82628745,1.482341,0.39531523)">
      <path
         d="m 8.562218,4.3643004 v 0.1522733 h 0.067524 q 0.048576,0 0.067868,-0.016536 0.019637,-0.016537 0.019637,-0.057533 0,-0.041686 -0.020326,-0.059945 -0.020326,-0.018259 -0.067179,-0.018259 z m 0,-0.2005047 v 0.1195449 h 0.067524 q 0.038585,0 0.054777,-0.01378 0.016536,-0.01378 0.016536,-0.045475 0,-0.031695 -0.016881,-0.04582 -0.016536,-0.014469 -0.054433,-0.014469 z m -0.098185,-0.08096 h 0.1657092 q 0.085783,0 0.1288467,0.032728 0.043408,0.032384 0.043408,0.097152 0,0.049609 -0.025494,0.077515 -0.025494,0.027905 -0.074759,0.032384 0.058911,0.00586 0.088539,0.039619 0.029972,0.033762 0.029972,0.094396 0,0.074414 -0.044786,0.1078315 -0.044786,0.033417 -0.1457276,0.033417 H 8.4640327 Z"
         id="path5252" />
    </g>
    <g
       aria-label="A"
       id="text4798"
       style="font-weight:bold;font-size:0.705556px;line-height:1.25;font-family:monospace;-inkscape-font-specification:'monospace, Bold';fill:#f2f2f2;stroke-width:0.264583"
       transform="matrix(0.82628745,0,0,0.82628745,1.482341,0.39531523)">
      <path
         d="M 8.633187,3.2772057 8.5853,3.4877012 H 8.681418 Z M 8.571175,3.1841877 H 8.695543 L 8.8343807,3.6985412 H 8.7327503 L 8.7010554,3.5714171 H 8.5649741 L 8.5339682,3.6985412 H 8.4323378 Z"
         id="path5255" />
    </g>
    <g
       aria-label="S"
       id="text4802"
       style="font-weight:bold;font-size:0.705556px;line-height:1.25;font-family:monospace;-inkscape-font-specification:'monospace, Bold';fill:#f2f2f2;stroke-width:0.264583"
       transform="matrix(0.82628745,0,0,0.82628745,1.482341,0.39531523)">
      <path
         d="M 8.596669,2.5625229 Q 8.519843,2.5332399 8.492627,2.5011999 8.465411,2.4688159 8.465411,2.4143839 q 0,-0.069936 0.044786,-0.1098986 0.044786,-0.039963 0.12299,-0.039963 0.035485,0 0.070969,0.00827 0.035485,0.00792 0.07028,0.023771 v 0.099219 q -0.032728,-0.023082 -0.06649,-0.03514 -0.033762,-0.012058 -0.066835,-0.012058 -0.036862,0 -0.0565,0.014814 -0.019637,0.014814 -0.019637,0.042375 0,0.02136 0.014125,0.035485 0.014469,0.01378 0.059945,0.030661 l 0.043753,0.016537 q 0.062012,0.022738 0.091295,0.060289 0.029283,0.037552 0.029283,0.09474 0,0.077859 -0.046164,0.1164443 -0.04582,0.038241 -0.1388374,0.038241 -0.038241,0 -0.076826,-0.0093 -0.038241,-0.00896 -0.07407,-0.026872 v -0.10508 q 0.040652,0.028939 0.078548,0.043064 0.038241,0.014125 0.075448,0.014125 0.037552,0 0.058222,-0.016881 0.020671,-0.017225 0.020671,-0.047887 0,-0.023082 -0.01378,-0.040308 -0.01378,-0.01757 -0.039963,-0.027561 z"
         id="path5258" />
    </g>
  </g>
  <g
     inkscape:groupmode="layer"
     id="layer3"
     inkscape:label="Layer 3"
     style="display:none">
    <text
       xml:space="preserve"
       style="font-style:normal;font-variant:normal;font-weight:normal;font-stretch:normal;font-size:3.20646px;line-height:1.25;font-family:'Source Code Pro';-inkscape-font-specification:'Source Code Pro, Normal';font-variant-ligatures:normal;font-variant-caps:normal;font-variant-numeric:normal;font-variant-east-asian:normal;fill:#f2f2f2;fill-opacity:1;stroke:none;stroke-width:0.218621"
       x="3.8600438"
       y="2.4291315"
       id="text8526"><tspan
         sodipodi:role="line"
         id="tspan10796"
         x="3.8600438"
         y="2.4291315"
         style="font-style:normal;font-variant:normal;font-weight:900;font-stretch:normal;font-size:1.16598px;font-family:'Source Code Pro';-inkscape-font-specification:'Source Code Pro, Heavy';font-variant-ligatures:normal;font-variant-caps:normal;font-variant-numeric:normal;font-variant-east-asian:normal;fill:#f2f2f2;fill-opacity:1;stroke-width:0.218621">VIS</tspan></text>
    <text
       xml:space="preserve"
       style="font-style:normal;font-variant:normal;font-weight:normal;font-stretch:normal;font-size:3.20646px;line-height:1.25;font-family:'Source Code Pro';-inkscape-font-specification:'Source Code Pro, Normal';font-variant-ligatures:normal;font-variant-caps:normal;font-variant-numeric:normal;font-variant-east-asian:normal;fill:#f2f2f2;fill-opacity:1;stroke:none;stroke-width:0.218621"
       x="10.878078"
       y="2.4291315"
       id="text16266"><tspan
         sodipodi:role="line"
         id="tspan16264"
         x="10.878078"
         y="2.4291315"
         style="font-style:normal;font-variant:normal;font-weight:900;font-stretch:normal;font-size:1.16598px;font-family:'Source Code Pro';-inkscape-font-specification:'Source Code Pro, Heavy';font-variant-ligatures:normal;font-variant-caps:normal;font-variant-numeric:normal;font-variant-east-asian:normal;fill:#f2f2f2;fill-opacity:1;stroke-width:0.218621">AUD</tspan></text>
    <text
       xml:space="preserve"
       style="font-style:normal;font-variant:normal;font-weight:normal;font-stretch:normal;font-size:3.20646px;line-height:1.25;font-family:'Source Code Pro';-inkscape-font-specification:'Source Code Pro, Normal';font-variant-ligatures:normal;font-variant-caps:normal;font-variant-numeric:normal;font-variant-east-asian:normal;fill:#f2f2f2;fill-opacity:1;stroke:none;stroke-width:0.218621"
       x="-0.041373566"
       y="8.5020313"
       id="text19136"><tspan
         sodipodi:role="line"
         id="tspan19134"
         x="-0.041373566"
         y="8.5020313"
         style="font-style:normal;font-variant:normal;font-weight:900;font-stretch:normal;font-size:1.16598px;font-family:'Source Code Pro';-inkscape-font-specification:'Source Code Pro, Heavy';font-variant-ligatures:normal;font-variant-caps:normal;font-variant-numeric:normal;font-variant-east-asian:normal;fill:#f2f2f2;fill-opacity:1;stroke-width:0.218621">6TH</tspan></text>
    <text
       xml:space="preserve"
       style="font-style:normal;font-variant:normal;font-weight:normal;font-stretch:normal;font-size:3.20646px;line-height:1.25;font-family:'Source Code Pro';-inkscape-font-specification:'Source Code Pro, Normal';font-variant-ligatures:normal;font-variant-caps:normal;font-variant-numeric:normal;font-variant-east-asian:normal;fill:#f2f2f2;fill-opacity:1;stroke:none;stroke-width:0.218621"
       x="14.885699"
       y="8.5020313"
       id="text21686"><tspan
         sodipodi:role="line"
         id="tspan21684"
         x="14.885699"
         y="8.5020313"
         style="font-style:normal;font-variant:normal;font-weight:900;font-stretch:normal;font-size:1.16598px;font-family:'Source Code Pro';-inkscape-font-specification:'Source Code Pro, Heavy';font-variant-ligatures:normal;font-variant-caps:normal;font-variant-numeric:normal;font-variant-east-asian:normal;fill:#f2f2f2;fill-opacity:1;stroke-width:0.218621">OLF</tspan></text>
    <text
       xml:space="preserve"
       style="font-style:normal;font-variant:normal;font-weight:normal;font-stretch:normal;font-size:3.20646px;line-height:1.25;font-family:'Source Code Pro';-inkscape-font-specification:'Source Code Pro, Normal';font-variant-ligatures:normal;font-variant-caps:normal;font-variant-numeric:normal;font-variant-east-asian:normal;fill:#f2f2f2;fill-opacity:1;stroke:none;stroke-width:0.218621"
       x="11.154216"
       y="14.580495"
       id="text25612"><tspan
         sodipodi:role="line"
         id="tspan25610"
         x="11.154216"
         y="14.580495"
         style="font-style:normal;font-variant:normal;font-weight:900;font-stretch:normal;font-size:1.16598px;font-family:'Source Code Pro';-inkscape-font-specification:'Source Code Pro, Heavy';font-variant-ligatures:normal;font-variant-caps:normal;font-variant-numeric:normal;font-variant-east-asian:normal;fill:#f2f2f2;fill-opacity:1;stroke-width:0.218621">KIN</tspan></text>
    <text
       xml:space="preserve"
       style="font-style:normal;font-variant:normal;font-weight:normal;font-stretch:normal;font-size:3.20646px;line-height:1.25;font-family:'Source Code Pro';-inkscape-font-specification:'Source Code Pro, Normal';font-variant-ligatures:normal;font-variant-caps:normal;font-variant-numeric:normal;font-variant-east-asian:normal;fill:#f2f2f2;fill-opacity:1;stroke:none;stroke-width:0.218621"
       x="3.9131455"
       y="14.580495"
       id="text29090"><tspan
         sodipodi:role="line"
         id="tspan29088"
         x="3.9131455"
         y="14.580495"
         style="font-style:normal;font-variant:normal;font-weight:900;font-stretch:normal;font-size:1.16598px;font-family:'Source Code Pro';-inkscape-font-specification:'Source Code Pro, Heavy';font-variant-ligatures:normal;font-variant-caps:normal;font-variant-numeric:normal;font-variant-east-asian:normal;fill:#f2f2f2;fill-opacity:1;stroke-width:0.218621">KIN</tspan></text>
  </g>
</svg>
